<svg xmlns="http://www.w3.org/2000/svg" xmlns:xlink="http://www.w3.org/1999/xlink" width="1920" zoomAndPan="magnify" viewBox="0 0 1440 809.999993" height="1080" preserveAspectRatio="xMidYMid meet" version="1.0"><rect x="-144" width="1728" fill="#ffffff" y="-80.999999" height="971.999992" fill-opacity="1"/><rect x="-144" width="1728" fill="#ffffff" y="-80.999999" height="971.999992" fill-opacity="1"/><rect x="-144" width="1728" fill="#ffffff" y="-80.999999" height="971.999992" fill-opacity="1"/><path fill="#8976b8" d="M 742.957031 424.945312 L 867.445312 424.945312 L 867.445312 487.945312 L 742.957031 487.945312 L 742.957031 424.945312 " fill-opacity="1" fill-rule="nonzero"/><path fill="#3d54a0" d="M 867.484375 424.945312 L 991.984375 424.945312 L 991.984375 487.195312 L 867.484375 487.195312 L 867.484375 424.945312 " fill-opacity="1" fill-rule="nonzero"/><path fill="#be8896" d="M 447.992188 424.945312 L 572.480469 424.945312 L 572.480469 487.195312 L 447.992188 487.195312 L 447.992188 424.945312 " fill-opacity="1" fill-rule="nonzero"/><path fill="#e5b39c" d="M 323.460938 424.945312 L 447.949219 424.945312 L 447.949219 487.195312 L 323.460938 487.195312 L 323.460938 424.945312 " fill-opacity="1" fill-rule="nonzero"/><path fill="#24344d" d="M 992.011719 424.945312 L 1116.511719 424.945312 L 1116.511719 487.195312 L 992.011719 487.195312 L 992.011719 424.945312 " fill-opacity="1" fill-rule="nonzero"/><path fill="#006d70" d="M 742.953125 532.933594 L 867.453125 532.933594 L 867.453125 595.183594 L 742.953125 595.183594 L 742.953125 532.933594 " fill-opacity="1" fill-rule="nonzero"/><path fill="#ffa053" d="M 447.988281 322.445312 L 572.488281 322.445312 L 572.488281 384.695312 L 447.988281 384.695312 L 447.988281 322.445312 " fill-opacity="1" fill-rule="nonzero"/><path fill="#98a065" d="M 323.457031 532.933594 L 447.957031 532.933594 L 447.957031 595.183594 L 323.457031 595.183594 L 323.457031 532.933594 " fill-opacity="1" fill-rule="nonzero"/><path fill="#5ebed4" d="M 867.484375 532.933594 L 991.984375 532.933594 L 991.984375 595.183594 L 867.484375 595.183594 L 867.484375 532.933594 " fill-opacity="1" fill-rule="nonzero"/><path fill="#eeede9" d="M 323.457031 214.804688 L 447.957031 214.804688 L 447.957031 277.054688 L 323.457031 277.054688 L 323.457031 214.804688 " fill-opacity="1" fill-rule="nonzero"/><path fill="#df3c3f" d="M 742.953125 322.445312 L 867.453125 322.445312 L 867.453125 384.695312 L 742.953125 384.695312 L 742.953125 322.445312 " fill-opacity="1" fill-rule="nonzero"/><path fill="#72bc7f" d="M 447.988281 532.933594 L 572.488281 532.933594 L 572.488281 595.183594 L 447.988281 595.183594 L 447.988281 532.933594 " fill-opacity="1" fill-rule="nonzero"/><path fill="#edd29b" d="M 323.460938 322.445312 L 447.949219 322.445312 L 447.949219 383.945312 L 323.460938 383.945312 L 323.460938 322.445312 " fill-opacity="1" fill-rule="nonzero"/><path fill="#d587b9" d="M 572.515625 424.945312 L 697.015625 424.945312 L 697.015625 487.195312 L 572.515625 487.195312 L 572.515625 424.945312 " fill-opacity="1" fill-rule="nonzero"/><path fill="#fb5a2e" d="M 572.515625 322.445312 L 697.015625 322.445312 L 697.015625 384.695312 L 572.515625 384.695312 L 572.515625 322.445312 " fill-opacity="1" fill-rule="nonzero"/><path fill="#2f2f2f" d="M 992.011719 214.804688 L 1116.511719 214.804688 L 1116.511719 277.054688 L 992.011719 277.054688 L 992.011719 214.804688 " fill-opacity="1" fill-rule="nonzero"/><path fill="#d5d4cf" d="M 447.988281 214.804688 L 572.488281 214.804688 L 572.488281 277.054688 L 447.988281 277.054688 L 447.988281 214.804688 " fill-opacity="1" fill-rule="nonzero"/><path fill="#b92d47" d="M 867.484375 322.257812 L 991.984375 322.257812 L 991.984375 384.507812 L 867.484375 384.507812 L 867.484375 322.257812 " fill-opacity="1" fill-rule="nonzero"/><path fill="#7f262c" d="M 992.011719 322.257812 L 1116.511719 322.257812 L 1116.511719 384.507812 L 992.011719 384.507812 L 992.011719 322.257812 " fill-opacity="1" fill-rule="nonzero"/><path fill="#443530" d="M 867.484375 214.804688 L 991.984375 214.804688 L 991.984375 277.054688 L 867.484375 277.054688 L 867.484375 214.804688 " fill-opacity="1" fill-rule="nonzero"/><path fill="#4d8fc3" d="M 992.011719 532.933594 L 1116.511719 532.933594 L 1116.511719 595.183594 L 992.011719 595.183594 L 992.011719 532.933594 " fill-opacity="1" fill-rule="nonzero"/><path fill="#32614d" d="M 572.515625 532.933594 L 697.015625 532.933594 L 697.015625 595.183594 L 572.515625 595.183594 L 572.515625 532.933594 " fill-opacity="1" fill-rule="nonzero"/><path fill="#a25744" d="M 742.953125 214.804688 L 867.453125 214.804688 L 867.453125 277.054688 L 742.953125 277.054688 L 742.953125 214.804688 " fill-opacity="1" fill-rule="nonzero"/><path fill="#c1b6bc" d="M 572.515625 214.804688 L 697.015625 214.804688 L 697.015625 277.054688 L 572.515625 277.054688 L 572.515625 214.804688 " fill-opacity="1" fill-rule="nonzero"/></svg>